<mxfile host="app.diagrams.net" modified="2020-11-24T11:10:30.188Z" agent="5.0 (Macintosh; Intel Mac OS X 10_15_6) AppleWebKit/537.36 (KHTML, like Gecko) Chrome/86.0.4240.193 Safari/537.36" etag="ZBpagJN4vaAdPELhQ0cB" version="13.10.0" type="github">
  <diagram id="Hk6JAbKR057ooRP-Hkw4" name="Page-1">
    <mxGraphModel dx="946" dy="538" grid="1" gridSize="10" guides="1" tooltips="1" connect="1" arrows="1" fold="1" page="1" pageScale="1" pageWidth="827" pageHeight="1169" math="0" shadow="0">
      <root>
        <mxCell id="0" />
        <mxCell id="1" parent="0" />
        <mxCell id="3TujbXyup_GJddwviF6T-1" value="RegistryDirectory#subscribe" style="rounded=1;whiteSpace=wrap;html=1;" vertex="1" parent="1">
          <mxGeometry x="80" y="70" width="190" height="60" as="geometry" />
        </mxCell>
        <mxCell id="3TujbXyup_GJddwviF6T-4" value="订阅type级别的providers，configurators，routers路径" style="text;html=1;strokeColor=none;fillColor=none;align=center;verticalAlign=middle;whiteSpace=wrap;rounded=0;" vertex="1" parent="1">
          <mxGeometry x="300" y="100" width="310" as="geometry" />
        </mxCell>
        <mxCell id="3TujbXyup_GJddwviF6T-5" value="ZookeeperRegistry#doSubscribe" style="rounded=1;whiteSpace=wrap;html=1;" vertex="1" parent="1">
          <mxGeometry x="80" y="210" width="190" height="60" as="geometry" />
        </mxCell>
        <mxCell id="3TujbXyup_GJddwviF6T-6" value="执行订阅操作&lt;br&gt;对路径增加监听器" style="text;html=1;strokeColor=none;fillColor=none;align=center;verticalAlign=middle;whiteSpace=wrap;rounded=0;" vertex="1" parent="1">
          <mxGeometry x="259" y="240" width="310" as="geometry" />
        </mxCell>
      </root>
    </mxGraphModel>
  </diagram>
</mxfile>
